<svg id="SvgjsSvg81988" width="32" height="21" xmlns="http://www.w3.org/2000/svg" version="1.1" xmlns:xlink="http://www.w3.org/1999/xlink" xmlns:svgjs="http://svgjs.com/svgjs" viewBox="0 0.86199951171875 32 19.27606201171875" fill="#ff3946" opacity="1"><defs id="SvgjsDefs81989"></defs><svg version="1.1" xmlns="http://www.w3.org/2000/svg" xmlns:xlink="http://www.w3.org/1999/xlink" width="32" height="21" viewBox="1.88451 1.91884 28.912 17.4159"><g><path fill="#ff3946" stroke="none" paint-order="stroke fill markers" fill-rule="evenodd" d=" M 22.23016357421875 1.918846845626831 C 22.23016357421875 1.918846845626831 20.816131591796875 3.3338510990142822 20.816131591796875 3.3338510990142822 C 20.816131591796875 3.3338510990142822 27.10912322998047 9.626806914806366 27.10912322998047 9.626806914806366 C 27.10912322998047 9.626806914806366 1.8845138549804688 9.626806914806366 1.8845138549804688 9.626806914806366 C 1.8845138549804688 9.626806914806366 1.8845138549804688 11.626614153385162 1.8845138549804688 11.626614153385162 C 1.8845138549804688 11.626614153385162 26.820045471191406 11.626614153385162 26.820045471191406 11.626614153385162 C 26.820045471191406 11.626614153385162 20.52899932861328 17.91975873708725 20.52899932861328 17.91975873708725 C 20.52899932861328 17.91975873708725 21.943031311035156 19.3347629904747 21.943031311035156 19.3347629904747 C 21.943031311035156 19.3347629904747 30.796524047851562 10.482114315032959 30.796524047851562 10.482114315032959 C 30.796524047851562 10.482114315032959 22.23016357421875 1.918846845626831 22.23016357421875 1.918846845626831 Z"></path></g></svg></svg>