<svg id="SvgjsSvg179921" width="40" height="33" xmlns="http://www.w3.org/2000/svg" version="1.1" xmlns:xlink="http://www.w3.org/1999/xlink" xmlns:svgjs="http://svgjs.com/svgjs" viewBox="0 0.24603271484375 40.00006103515625 32.5079345703125" fill="#ffffff" opacity="1"><defs id="SvgjsDefs179922"></defs><svg version="1.1" xmlns="http://www.w3.org/2000/svg" xmlns:xlink="http://www.w3.org/1999/xlink" width="40" height="33" viewBox="1.86859 1.01338 36.9765 30.0507"><g><path fill="#ffffff" stroke="none" paint-order="stroke fill markers" fill-rule="evenodd" d=" M 38.84513854980469 4.572034120559692 C 37.487754821777344 5.17344868183136 36.02680206298828 5.583641350269318 34.48974609375 5.765424847602844 C 36.05415344238281 4.828003406524658 37.25921630859375 3.341456115245819 37.825584411621094 1.566093921661377 C 36.360740661621094 2.4374465942382812 34.733848571777344 3.0701966285705566 33.00922393798828 3.411866545677185 C 31.626434326171875 1.93532395362854 29.653701782226562 1.0133814811706543 27.470169067382812 1.0133814811706543 C 23.280715942382812 1.0133814811706543 19.88422393798828 4.409882485866547 19.88422393798828 8.599397480487823 C 19.88422393798828 9.195149004459381 19.954490661621094 9.771268665790558 20.082435607910156 10.329832911491394 C 13.775825500488281 10.015345573425293 8.187904357910156 6.993926405906677 4.444770812988281 2.400070548057556 C 3.7924575805664062 3.5194642543792725 3.4164047241210938 4.828003406524658 3.4164047241210938 6.218467831611633 C 3.4164047241210938 8.84762728214264 4.7573089599609375 11.167584896087646 6.792411804199219 12.53275442123413 C 5.550270080566406 12.49198055267334 4.378395080566406 12.149933099746704 3.354949951171875 11.579854011535645 C 3.354949951171875 11.613077163696289 3.354949951171875 11.646300315856934 3.354949951171875 11.679334700107574 C 3.354949951171875 15.351436853408813 5.971183776855469 18.419670462608337 9.442863464355469 19.116979122161865 C 8.802223205566406 19.288757920265198 8.134231567382812 19.38068789243698 7.440834045410156 19.38068789243698 C 6.953544616699219 19.38068789243698 6.4789581298828125 19.335572361946106 6.0170745849609375 19.24401992559433 C 6.9779205322265625 22.26147496700287 9.780693054199219 24.452881634235382 13.099021911621094 24.515363812446594 C 10.503387451171875 26.550470650196075 7.2338104248046875 27.763304471969604 3.6811065673828125 27.763304471969604 C 3.0658721923828125 27.763304471969604 2.4633407592773438 27.726305961608887 1.86859130859375 27.656084299087524 C 5.228004455566406 29.806528329849243 9.215240478515625 31.06410014629364 13.49945068359375 31.06410014629364 C 27.453575134277344 31.06410014629364 35.085411071777344 19.50376456975937 35.085411071777344 9.478300869464874 C 35.085411071777344 9.152109920978546 35.07762908935547 8.821954846382141 35.06000518798828 8.495763897895813 C 36.54247283935547 7.427526295185089 37.82958984375 6.091615796089172 38.84513854980469 4.572034120559692 Z"></path></g></svg></svg>