<svg id="SvgjsSvg180763" width="40" height="40" xmlns="http://www.w3.org/2000/svg" version="1.1" xmlns:xlink="http://www.w3.org/1999/xlink" xmlns:svgjs="http://svgjs.com/svgjs" viewBox="0.0020751953125 0 39.995849609375 40" fill="#ffffff" opacity="1"><defs id="SvgjsDefs180764"></defs><svg version="1.1" xmlns="http://www.w3.org/2000/svg" xmlns:xlink="http://www.w3.org/1999/xlink" width="40" height="40" viewBox="1.58536 1.41179 37.1094 37.1133"><g><path fill="#ffffff" stroke="none" paint-order="stroke fill markers" fill-rule="evenodd" d=" M 38.31974792480469 16.234031200408936 C 38.075645446777344 15.040829241275787 37.71229553222656 13.868958055973053 37.237709045410156 12.745977759361267 C 36.770904541015625 11.644328236579895 36.196754455566406 10.583641350269318 35.524871826171875 9.591665983200073 C 34.864662170410156 8.609317779541016 34.10099792480469 7.689074218273163 33.26317596435547 6.851511001586914 C 32.421348571777344 6.009606122970581 31.501358032226562 5.246039927005768 30.518997192382812 4.585541009902954 C 29.52873992919922 3.9137160181999207 28.466270446777344 3.3357086777687073 27.364662170410156 2.8690744042396545 C 26.24748992919922 2.3980984687805176 25.069778442382812 2.0349090099334717 23.878334045410156 1.7929085493087769 C 22.65576171875 1.540903389453888 21.39794158935547 1.411786139011383 20.142066955566406 1.411786139011383 C 18.884246826171875 1.411786139011383 17.628372192382812 1.540903389453888 16.40373992919922 1.7929085493087769 C 15.21435546875 2.0349090099334717 14.038475036621094 2.3980984687805176 12.919357299804688 2.8690744042396545 C 11.817863464355469 3.3357086777687073 10.757225036621094 3.9137160181999207 9.767082214355469 4.585541009902954 C 8.78460693359375 5.246039927005768 7.8587799072265625 6.009606122970581 7.017066955566406 6.851511001586914 C 6.183021545410156 7.689074218273163 5.4193572998046875 8.609317779541016 4.75537109375 9.591665983200073 C 4.087379455566406 10.583641350269318 3.5092239379882812 11.644328236579895 3.0463104248046875 12.745977759361267 C 2.5717239379882812 13.868958055973053 2.2044830322265625 15.040829241275787 1.9623260498046875 16.234031200408936 C 1.7143325805664062 17.45479327440262 1.585357666015625 18.714441537857056 1.585357666015625 19.968615531921387 C 1.585357666015625 21.226376116275787 1.7143325805664062 22.48621314764023 1.9623260498046875 23.70282232761383 C 2.2044830322265625 24.896401822566986 2.5717239379882812 26.072048366069794 3.0463104248046875 27.191253304481506 C 3.5092239379882812 28.29290282726288 4.087379455566406 29.35321217775345 4.75537109375 30.349340438842773 C 5.4193572998046875 31.325836837291718 6.183021545410156 32.25155466794968 7.017066955566406 33.08949542045593 C 7.8587799072265625 33.931400299072266 8.78460693359375 34.691191136837006 9.767082214355469 35.35131251811981 C 10.757225036621094 36.023137509822845 11.817863464355469 36.60133361816406 12.919357299804688 37.06815665960312 C 14.038475036621094 37.53875505924225 15.21435546875 37.901944518089294 16.40373992919922 38.144322514534 C 17.628372192382812 38.40010303258896 18.884246826171875 38.52506738901138 20.142066955566406 38.52506738901138 C 21.39794158935547 38.52506738901138 22.65576171875 38.40010303258896 23.878334045410156 38.144322514534 C 25.069778442382812 37.901944518089294 26.24748992919922 37.53875505924225 27.364662170410156 37.06815665960312 C 28.466270446777344 36.60133361816406 29.52873992919922 36.023137509822845 30.518997192382812 35.35131251811981 C 31.501358032226562 34.691191136837006 32.421348571777344 33.931400299072266 33.26317596435547 33.08949542045593 C 34.10099792480469 32.25155466794968 34.864662170410156 31.325836837291718 35.524871826171875 30.349340438842773 C 36.196754455566406 29.35321217775345 36.770904541015625 28.29290282726288 37.237709045410156 27.191253304481506 C 37.71229553222656 26.072048366069794 38.075645446777344 24.896401822566986 38.31974792480469 23.70282232761383 C 38.571746826171875 22.48621314764023 38.69477081298828 21.226376116275787 38.69477081298828 19.968615531921387 C 38.69477081298828 18.714441537857056 38.571746826171875 17.45479327440262 38.31974792480469 16.234031200408936 Z M 35.98377990722656 19.808351576328278 C 35.75146484375 19.76153713464737 30.39013671875 18.607221364974976 24.946754455566406 19.290749967098236 C 24.835403442382812 19.01930171251297 24.72016143798828 18.745965778827667 24.60491943359375 18.474328756332397 C 24.272926330566406 17.698870182037354 23.919418334960938 16.931528627872467 23.55217742919922 16.175701916217804 C 29.808090209960938 13.620917022228241 32.347076416015625 9.946927189826965 32.38026428222656 9.902189195156097 C 34.600990295410156 12.601192772388458 35.94670104980469 16.052625238895416 35.98377990722656 19.808351576328278 Z M 30.60883331298828 8.077936112880707 C 30.56786346435547 8.140418291091919 28.31005859375 11.574106574058533 22.329490661621094 13.814404129981995 C 19.62250518798828 8.837538182735443 16.645896911621094 4.882472932338715 16.407630920410156 4.5702508091926575 C 17.608802795410156 4.281058371067047 18.854949951171875 4.122682094573975 20.142066955566406 4.122682094573975 C 24.153793334960938 4.122682094573975 27.815902709960938 5.616968870162964 30.60883331298828 8.077936112880707 Z M 16.34514617919922 4.581765651702881 C 16.34514617919922 4.581765651702881 16.34514617919922 4.585541009902954 16.34514617919922 4.585541009902954 C 16.34514617919922 4.585541009902954 16.323631286621094 4.589505136013031 16.296279907226562 4.593658030033112 C 16.296279907226562 4.593658030033112 16.32958221435547 4.589505136013031 16.34514617919922 4.581765651702881 Z M 13.382270812988281 5.638299643993378 C 13.587348937988281 5.919752597808838 16.522872924804688 9.89407217502594 19.263160705566406 14.767304539680481 C 11.65570068359375 16.790707767009735 5.0522308349609375 16.708782494068146 4.632232666015625 16.702930688858032 C 5.66357421875 11.79666393995285 8.962333679199219 7.726261496543884 13.382270812988281 5.638299643993378 Z M 4.294403076171875 19.968615531921387 C 4.294403076171875 19.79872441291809 4.30218505859375 19.6343075633049 4.3060760498046875 19.468569338321686 C 4.587371826171875 19.472533464431763 12.419364929199219 19.65016406774521 20.57568359375 17.210905134677887 C 21.03070068359375 18.09924691915512 21.46820831298828 19.001557528972626 21.862686157226562 19.90594458580017 C 21.653717041015625 19.96049851179123 21.446693420410156 20.02694481611252 21.23577880859375 20.091692209243774 C 12.684982299804688 22.853177964687347 8.350990295410156 30.550567030906677 8.350990295410156 30.550567030906677 C 8.350990295410156 30.550567030906677 8.354881286621094 30.558306515216827 8.354881286621094 30.558306515216827 C 5.833404541015625 27.747741103172302 4.294403076171875 24.03882920742035 4.294403076171875 19.968615531921387 Z M 20.142066955566406 35.817946791648865 C 16.308067321777344 35.817946791648865 12.786605834960938 34.450889587402344 10.046318054199219 32.185485899448395 C 10.253341674804688 32.35537701845169 10.401771545410156 32.462785959243774 10.401771545410156 32.462785959243774 C 10.401771545410156 32.462785959243774 13.438919067382812 25.837598621845245 22.837379455566406 22.560210168361664 C 22.87445831298828 22.54869532585144 22.90764617919922 22.53472650051117 22.940834045410156 22.530951142311096 C 25.173233032226562 28.321973085403442 26.093223571777344 33.1755735874176 26.325653076171875 34.5620738863945 C 24.42719268798828 35.366980254650116 22.337387084960938 35.817946791648865 20.142066955566406 35.817946791648865 Z M 28.995559692382812 33.10912728309631 C 28.835342407226562 32.15603810548782 27.98779296875 27.505551874637604 25.911605834960938 21.792868614196777 C 31.026771545410156 20.976258635520935 35.45849609375 22.378804206848145 35.788543701171875 22.48621314764023 C 35.083473205566406 26.902060866355896 32.55810546875 30.71252989768982 28.995559692382812 33.10912728309631 Z"></path></g></svg></svg>