<svg id="SvgjsSvg179262" width="19" height="39" xmlns="http://www.w3.org/2000/svg" version="1.1" xmlns:xlink="http://www.w3.org/1999/xlink" xmlns:svgjs="http://svgjs.com/svgjs" viewBox="0.43804931640625 0 18.12384033203125 39" fill="#ffffff" opacity="1"><defs id="SvgjsDefs179263"></defs><svg version="1.1" xmlns="http://www.w3.org/2000/svg" xmlns:xlink="http://www.w3.org/1999/xlink" width="19" height="39" viewBox="1.12048 1.3259 16.8496 36.258"><g><path fill="#ffffff" stroke="none" paint-order="stroke fill markers" fill-rule="evenodd" d=" M 17.970069885253906 13.064051687717438 C 17.970069885253906 13.064051687717438 12.231773376464844 13.064051687717438 12.231773376464844 13.064051687717438 C 12.231773376464844 13.064051687717438 12.231773376464844 9.3043612241745 12.231773376464844 9.3043612241745 C 12.231773376464844 7.88841313123703 13.168357849121094 7.562222182750702 13.829483032226562 7.562222182750702 C 14.487632751464844 7.562222182750702 17.87828826904297 7.562222182750702 17.87828826904297 7.562222182750702 C 17.87828826904297 7.562222182750702 17.87828826904297 1.345339834690094 17.87828826904297 1.345339834690094 C 17.87828826904297 1.345339834690094 12.300209045410156 1.3258967399597168 12.300209045410156 1.3258967399597168 C 6.108726501464844 1.3258967399597168 4.702476501464844 5.956751108169556 4.702476501464844 8.923616349697113 C 4.702476501464844 8.923616349697113 4.702476501464844 13.064051687717438 4.702476501464844 13.064051687717438 C 4.702476501464844 13.064051687717438 1.1204757690429688 13.064051687717438 1.1204757690429688 13.064051687717438 C 1.1204757690429688 13.064051687717438 1.1204757690429688 19.468569338321686 1.1204757690429688 19.468569338321686 C 1.1204757690429688 19.468569338321686 4.702476501464844 19.468569338321686 4.702476501464844 19.468569338321686 C 4.702476501464844 27.68733537197113 4.702476501464844 37.583870589733124 4.702476501464844 37.583870589733124 C 4.702476501464844 37.583870589733124 12.231773376464844 37.583870589733124 12.231773376464844 37.583870589733124 C 12.231773376464844 37.583870589733124 12.231773376464844 27.587665915489197 12.231773376464844 19.468569338321686 C 12.231773376464844 19.468569338321686 17.313865661621094 19.468569338321686 17.313865661621094 19.468569338321686 C 17.313865661621094 19.468569338321686 17.970069885253906 13.064051687717438 17.970069885253906 13.064051687717438 Z"></path></g></svg></svg>